<?xml version="1.0" encoding="utf-8"?>
<!-- Generator: Adobe Illustrator 21.0.2, SVG Export Plug-In . SVG Version: 6.00 Build 0)  -->
<svg version="1.1" id="Layer_1" xmlns="http://www.w3.org/2000/svg" xmlns:xlink="http://www.w3.org/1999/xlink" x="0px" y="0px"
	 viewBox="0 0 183 85" style="enable-background:new 0 0 183 85;" xml:space="preserve">
<style type="text/css">
	.st0{clip-path:url(#SVGID_2_);}
	.st1{clip-path:url(#SVGID_4_);}
	.st2{fill:#ED1C24;}
	.st3{clip-path:url(#SVGID_6_);fill:#ED1C24;}
</style>
<g>
	<defs>
		<rect id="SVGID_1_" x="-27.3" y="-5" width="225.9" height="108.3"/>
	</defs>
	<clipPath id="SVGID_2_">
		<use xlink:href="#SVGID_1_"  style="overflow:visible;"/>
	</clipPath>
	<g class="st0">
		<defs>
			<rect id="SVGID_3_" x="-25" y="-10.7" width="225.9" height="108.3"/>
		</defs>
		<clipPath id="SVGID_4_">
			<use xlink:href="#SVGID_3_"  style="overflow:visible;"/>
		</clipPath>
		<g class="st1">
			<path class="st2" d="M74.4,55.1h3.8v2.2H66.1v-2.2h3.8V18.8h-3.8v-2.2h8.4V55.1z"/>
			<path class="st2" d="M103.1,57.3c-0.7,0.1-1.4,0.2-2,0.3c-0.6,0-1.1,0.1-1.4,0.1c-0.9,0-1.6-0.1-2.2-0.2c-0.6-0.2-1-0.4-1.4-0.7
				c-0.3-0.3-0.6-0.7-0.7-1.1c-0.2-0.4-0.2-0.9-0.3-1.4h-0.1c-0.5,0.7-1,1.3-1.5,1.9c-0.5,0.5-1.1,0.9-1.7,1.2
				c-0.6,0.3-1.2,0.5-1.8,0.6s-1.2,0.2-1.9,0.2c-1,0-2-0.2-2.8-0.5s-1.5-0.7-2.1-1.3c-0.6-0.6-1-1.2-1.3-2c-0.3-0.8-0.4-1.6-0.4-2.6
				c0-2.6,1.2-4.6,3.5-5.9c2.3-1.4,5.6-2.1,10-2.2c0-0.8,0-1.6,0-2.3c0-0.7,0-1.3,0-2c0-1.7-0.3-2.9-1-3.6c-0.6-0.7-1.6-1-3-1
				c-0.9,0-1.7,0.1-2.4,0.3c-0.7,0.2-1.3,0.5-1.8,0.9c0.4,0.4,0.7,0.9,0.9,1.4c0.2,0.5,0.3,0.9,0.3,1.4c0,0.8-0.2,1.4-0.7,2
				c-0.5,0.5-1.1,0.8-1.9,0.8c-0.3,0-0.7-0.1-1-0.2s-0.6-0.3-0.8-0.5c-0.2-0.2-0.4-0.5-0.6-0.9c-0.1-0.4-0.2-0.8-0.2-1.3
				c0-0.8,0.2-1.5,0.6-2.2c0.4-0.7,0.9-1.4,1.7-1.9c0.8-0.6,1.7-1,2.8-1.3s2.4-0.5,3.9-0.5c1.2,0,2.3,0.1,3.2,0.4
				c0.9,0.3,1.7,0.7,2.4,1.3c0.7,0.6,1.1,1.4,1.5,2.4c0.3,1,0.5,2.3,0.5,3.8c0,0.4,0,1,0,1.8c0,0.9,0,1.8,0,2.8s0,2.1,0,3.1
				s0,2,0,2.8c0,0.8,0,1.5,0.1,2.1s0.1,1,0.3,1.3c0.1,0.3,0.3,0.6,0.6,0.7s0.7,0.2,1.1,0.2c0.4,0,1-0.1,1.7-0.2V57.3z M95,45.8
				c-1.8,0.1-3.3,0.2-4.5,0.5c-1.1,0.3-2,0.6-2.6,1.1c-0.6,0.5-1,1-1.3,1.7c-0.2,0.7-0.3,1.4-0.3,2.2c0,1.5,0.3,2.5,0.8,3.3
				c0.5,0.7,1.3,1.1,2.3,1.1c0.5,0,1.1-0.1,1.8-0.4s1.3-0.6,1.8-1.2c0.6-0.6,1.1-1.3,1.4-2.2c0.4-0.9,0.6-2,0.6-3.3V45.8z"/>
			<path class="st2" d="M114,55.1h3.4v2.2h-11.8v-2.2h3.8V35.7h-3.8v-2.2h8.4v4.1h0.1c0.7-1.6,1.6-2.7,2.8-3.6
				c1.2-0.8,2.7-1.2,4.5-1.2c2.3,0,4,0.7,5.2,2c1.1,1.3,1.7,3.2,1.7,5.7v14.8h3.7v2.2h-11.7v-2.2h3.4V39.5c0-1.5-0.3-2.6-0.9-3.3
				c-0.6-0.7-1.5-1.1-2.6-1.1c-0.9,0-1.7,0.2-2.4,0.6s-1.4,1-1.9,1.9c-0.5,0.8-1,1.9-1.3,3.2c-0.3,1.3-0.5,2.9-0.5,4.7V55.1z"/>
			<path class="st2" d="M156.8,55.1h3.8v2.2h-8.4v-3.4h-0.1c-0.4,0.8-0.9,1.5-1.4,2c-0.5,0.5-1.1,1-1.6,1.3
				c-0.6,0.3-1.2,0.6-1.8,0.7c-0.6,0.1-1.3,0.2-1.9,0.2c-1.6,0-3-0.3-4.3-1c-1.3-0.7-2.3-1.6-3.2-2.7c-0.9-1.1-1.5-2.5-2-4
				s-0.7-3.1-0.7-4.9c0-1.8,0.2-3.5,0.7-5.1c0.5-1.6,1.2-3,2.1-4.1c0.9-1.2,2-2.1,3.2-2.8c1.3-0.7,2.7-1,4.2-1c1.5,0,2.8,0.3,3.9,1
				c1.1,0.7,2,1.6,2.7,2.9h0.1V18.8h-4.1v-2.2h8.6V55.1z M140.3,45.4c0,2.1,0.1,3.9,0.4,5.2c0.3,1.4,0.7,2.4,1.1,3.2
				c0.5,0.8,1.1,1.3,1.8,1.6c0.7,0.3,1.4,0.4,2.2,0.4c1.3,0,2.3-0.3,3.2-0.9c0.8-0.6,1.5-1.4,2-2.4s0.8-2.2,1-3.4
				c0.2-1.3,0.3-2.6,0.3-3.9c0-1.9-0.2-3.5-0.5-4.8c-0.3-1.3-0.7-2.4-1.3-3.2c-0.6-0.8-1.2-1.4-2-1.7s-1.6-0.5-2.5-0.5
				c-0.8,0-1.6,0.1-2.3,0.4s-1.3,0.8-1.8,1.6c-0.5,0.8-0.9,1.8-1.2,3.2C140.4,41.5,140.3,43.2,140.3,45.4z"/>
		</g>
	</g>
	<g class="st0">
		<path d="M16.6,77.6V66.1h1v11.6H16.6z"/>
		<path d="M25.4,77.6V66.1h5.7v1h-4.7v4.2H31v1h-4.5v4.3h4.7v1H25.4z"/>
		<path d="M38.7,77.6V66.1h1v10.5h4.3v1H38.7z"/>
		<path d="M52.3,77.6V67.1h-2.4v-1h5.8v1h-2.4v10.5H52.3z"/>
		<path d="M61.8,74.4h1.1c0,0.6,0.2,1.2,0.6,1.6c0.4,0.5,0.9,0.7,1.5,0.7c0.6,0,1.1-0.2,1.5-0.7c0.4-0.4,0.6-1,0.6-1.6
			c0-0.3-0.1-0.6-0.2-0.9c-0.1-0.3-0.3-0.5-0.5-0.7s-0.5-0.4-0.8-0.5c-0.2-0.1-0.4-0.2-0.9-0.3c-0.2-0.1-0.4-0.1-0.6-0.2
			s-0.3-0.1-0.4-0.1c-0.4-0.1-0.6-0.3-0.9-0.6c-0.3-0.3-0.5-0.6-0.6-1c-0.2-0.4-0.2-0.8-0.2-1.2c0-0.9,0.3-1.7,0.9-2.2
			c0.6-0.6,1.3-0.9,2.1-0.9c0.8,0,1.5,0.3,2,0.9S68,68.1,68,69h-1.1c0-0.6-0.2-1.1-0.5-1.5S65.5,67,65,67c-0.5,0-0.9,0.2-1.3,0.6
			c-0.4,0.4-0.5,0.9-0.5,1.4c0,0.4,0.1,0.8,0.3,1.1c0.2,0.2,0.4,0.4,0.8,0.6c0.1,0.1,0.2,0.1,0.4,0.2S65,71,65.3,71
			c0.6,0.2,0.9,0.3,1.1,0.4c0.2,0.1,0.4,0.2,0.5,0.3c0.2,0.1,0.3,0.2,0.4,0.4c0.3,0.3,0.5,0.6,0.7,1.1c0.2,0.4,0.3,0.9,0.3,1.3
			c0,0.9-0.3,1.7-0.9,2.4s-1.4,1-2.2,1c-0.9,0-1.7-0.3-2.3-1C62.1,76.2,61.8,75.4,61.8,74.4z"/>
		<path d="M84.9,77.6V66.1h1v10.5h4.3v1H84.9z"/>
		<path d="M104.6,73.8h-7c0,0.8,0.3,1.5,0.9,2.1c0.6,0.6,1.3,0.9,2,0.9c0.6,0,1.1-0.2,1.7-0.5c0.5-0.3,0.9-0.8,1.1-1.4h1.1
			c-0.3,0.9-0.8,1.6-1.5,2.1c-0.7,0.6-1.5,0.9-2.3,0.9c-1.1,0-2.1-0.4-2.9-1.3c-0.8-0.9-1.2-1.9-1.2-3.2c0-1.3,0.4-2.3,1.2-3.2
			c0.8-0.9,1.7-1.3,2.9-1.3c0.6,0,1.2,0.1,1.7,0.4s1,0.7,1.4,1.2c0.3,0.5,0.6,1,0.7,1.5C104.6,72.5,104.6,73.1,104.6,73.8z
			 M97.6,72.7h6c-0.1-0.8-0.5-1.4-1-1.9c-0.6-0.5-1.2-0.8-1.9-0.8c-0.7,0-1.4,0.3-2,0.8S97.8,71.9,97.6,72.7z"/>
		<path d="M119.6,69.1v8.6h-1V76c-0.3,0.6-0.7,1-1.3,1.4c-0.5,0.3-1.1,0.5-1.7,0.5c-0.6,0-1.2-0.1-1.8-0.4c-0.6-0.3-1.2-0.8-1.6-1.4
			c-0.2-0.2-0.3-0.5-0.5-1c-0.2-0.6-0.3-1.1-0.3-1.7c0-0.5,0.1-1.1,0.3-1.6c0.2-0.5,0.3-0.8,0.5-1c0.5-0.7,1.1-1.1,1.7-1.4
			c0.5-0.3,1.1-0.4,1.6-0.4c0.3,0,0.6,0,0.9,0.1s0.6,0.2,0.8,0.3c0.6,0.3,1,0.8,1.3,1.4v-1.6H119.6z M115.6,70c-0.8,0-1.6,0.3-2.2,1
			s-0.9,1.5-0.9,2.4c0,0.9,0.3,1.7,0.9,2.4c0.6,0.7,1.4,1,2.2,1c0.8,0,1.5-0.3,2.1-1c0.6-0.7,0.9-1.4,0.9-2.3c0-0.9-0.3-1.7-0.9-2.4
			C117.2,70.3,116.5,70,115.6,70z"/>
		<path d="M135,66.1v11.6h-1v-1.6c-0.4,0.6-0.8,1-1.3,1.3c-0.5,0.3-1.1,0.4-1.8,0.4c-0.6,0-1.1-0.1-1.6-0.4
			c-0.5-0.3-1.1-0.7-1.6-1.4c-0.2-0.2-0.4-0.5-0.6-1c-0.2-0.6-0.3-1.1-0.3-1.7c0-1.3,0.4-2.3,1.2-3.2s1.8-1.3,2.9-1.3
			c0.6,0,1.2,0.1,1.7,0.4c0.6,0.3,1,0.7,1.3,1.3v-4.5H135z M134,73.3c0-0.9-0.3-1.7-0.9-2.4s-1.3-1-2.2-1c-0.8,0-1.5,0.3-2.1,1
			c-0.6,0.6-0.9,1.4-0.9,2.3c0,0.9,0.3,1.7,0.9,2.4c0.6,0.7,1.3,1,2.2,1c0.8,0,1.6-0.3,2.2-1C133.7,75.1,134,74.3,134,73.3z"/>
		<path d="M150.2,73.8h-7c0,0.8,0.3,1.5,0.9,2.1c0.6,0.6,1.3,0.9,2,0.9c0.6,0,1.1-0.2,1.7-0.5c0.5-0.3,0.9-0.8,1.1-1.4h1.1
			c-0.3,0.9-0.8,1.6-1.5,2.1c-0.7,0.6-1.5,0.9-2.3,0.9c-1.1,0-2.1-0.4-2.9-1.3c-0.8-0.9-1.2-1.9-1.2-3.2c0-1.3,0.4-2.3,1.2-3.2
			c0.8-0.9,1.7-1.3,2.9-1.3c0.6,0,1.2,0.1,1.7,0.4s1,0.7,1.4,1.2c0.3,0.5,0.6,1,0.7,1.5C150.1,72.5,150.2,73.1,150.2,73.8z
			 M143.2,72.7h6c-0.1-0.8-0.5-1.4-1-1.9c-0.6-0.5-1.2-0.8-1.9-0.8c-0.7,0-1.4,0.3-2,0.8S143.3,71.9,143.2,72.7z"/>
		<path d="M157.3,77.6v-8.6h1v1.2c0.2-0.5,0.5-0.9,0.9-1.1c0.4-0.2,0.8-0.3,1.3-0.3V70c-0.5,0-1,0.2-1.4,0.6c-0.3,0.3-0.6,0.7-0.7,1
			c-0.1,0.3-0.1,0.7-0.1,1.2v4.8H157.3z"/>
	</g>
	<g class="st0">
		<defs>
			<rect id="SVGID_5_" x="-25" y="-10.7" width="225.9" height="108.3"/>
		</defs>
		<clipPath id="SVGID_6_">
			<use xlink:href="#SVGID_5_"  style="overflow:visible;"/>
		</clipPath>
		<path class="st3" d="M40.8,19c0.1-0.3,2.5-5.6,6.2-9.5c-9.9,1.1-12.5,8.1-12.5,8.1L16.1,57.3h7.3L40.8,19z"/>
		<path class="st3" d="M42.1,39.3h7.6v18.1h9.7v-48H53h-1.8c-3.6,2.5-6.8,8.2-7.9,10.8l-12,26.2l-5,11h8.4
			C35.6,55.1,39,46.9,42.1,39.3 M49.6,20.5v14.8h-6C46.8,27.4,49.6,20.5,49.6,20.5"/>
	</g>
</g>
</svg>
