<svg xmlns="http://www.w3.org/2000/svg" width="117.324" height="53.229" viewBox="0 0 117.324 53.229">
  <g id="LOGO_ALAND_NEW-01" data-name="LOGO ALAND NEW-01" transform="translate(-177.6 -86.4)">
    <path id="Path_119" data-name="Path 119" d="M399.8,148.805h3.09v1.823H393v-1.823h3.09v-29.48H393V117.5h6.8Z" transform="translate(-174.869 -25.248)" fill="#f24962"/>
    <path id="Path_120" data-name="Path 120" d="M477.335,207.135a11.2,11.2,0,0,1-1.607.228q-.741.045-1.174.045a7.007,7.007,0,0,1-1.8-.188,2.763,2.763,0,0,1-1.129-.565,2.1,2.1,0,0,1-.6-.89,4.308,4.308,0,0,1-.226-1.163h-.1a8.009,8.009,0,0,1-1.236,1.505,5.926,5.926,0,0,1-2.853,1.505,7.3,7.3,0,0,1-1.505.16,6.28,6.28,0,0,1-2.256-.369,4.642,4.642,0,0,1-1.669-1.059,4.489,4.489,0,0,1-1.029-1.63,5.962,5.962,0,0,1-.35-2.087,5.28,5.28,0,0,1,2.811-4.823q2.811-1.654,8.106-1.767.021-1.026.03-1.846t.011-1.618a4.276,4.276,0,0,0-.773-2.907,3.169,3.169,0,0,0-2.446-.832,6.661,6.661,0,0,0-1.987.273,4.221,4.221,0,0,0-1.432.73,3.6,3.6,0,0,1,.732,1.106,3.04,3.04,0,0,1,.237,1.152,2.343,2.343,0,0,1-.564,1.6,1.916,1.916,0,0,1-1.524.638,2.418,2.418,0,0,1-.8-.137,1.729,1.729,0,0,1-.679-.433,2.2,2.2,0,0,1-.463-.741,2.822,2.822,0,0,1-.175-1.037,3.836,3.836,0,0,1,.463-1.812,4.7,4.7,0,0,1,1.379-1.562,7.289,7.289,0,0,1,2.286-1.1,11.2,11.2,0,0,1,3.2-.41,9.784,9.784,0,0,1,2.634.32,4.347,4.347,0,0,1,3.131,3.033,9.972,9.972,0,0,1,.4,3.056q0,.455-.009,1.494t-.03,2.292q-.021,1.255-.03,2.542t-.009,2.269q0,1,.041,1.677a3.41,3.41,0,0,0,.205,1.073,1.071,1.071,0,0,0,.495.564,2.045,2.045,0,0,0,.928.171,8.937,8.937,0,0,0,1.36-.137Zm-6.612-9.393a20.066,20.066,0,0,0-3.626.376,5.715,5.715,0,0,0-2.141.866,2.759,2.759,0,0,0-1.029,1.357,5.725,5.725,0,0,0-.267,1.823,4.358,4.358,0,0,0,.67,2.657,2.19,2.19,0,0,0,1.844.879,4.139,4.139,0,0,0,1.432-.3,4.368,4.368,0,0,0,1.494-.969,5.247,5.247,0,0,0,1.165-1.767,6.971,6.971,0,0,0,.463-2.713Z" transform="translate(-229.098 -81.753)" fill="#f24962"/>
    <path id="Path_121" data-name="Path 121" d="M570.693,205.276h2.785V207.1H563.9v-1.823h3.09V189.495H563.9v-1.823h6.793v3.31h.083a6.967,6.967,0,0,1,2.258-2.907,6.169,6.169,0,0,1,3.68-1.014,5.236,5.236,0,0,1,4.2,1.607,6.842,6.842,0,0,1,1.377,4.591v12.016h2.986V207.1h-9.474v-1.823h2.781V192.622a3.914,3.914,0,0,0-.762-2.657,2.693,2.693,0,0,0-2.143-.847,4.049,4.049,0,0,0-1.957.489,4.405,4.405,0,0,0-1.575,1.517,8.493,8.493,0,0,0-1.061,2.623,16.045,16.045,0,0,0-.4,3.777Z" transform="translate(-313.612 -81.719)" fill="#f24962"/>
    <path id="Path_122" data-name="Path 122" d="M709.244,148.805h3.09v1.823h-6.795V147.87h-.083a7.526,7.526,0,0,1-1.165,1.63,5.959,5.959,0,0,1-1.328,1.048,5.034,5.034,0,0,1-1.462.564,7.543,7.543,0,0,1-1.545.16,7.308,7.308,0,0,1-3.481-.809,7.789,7.789,0,0,1-2.576-2.2,9.889,9.889,0,0,1-1.6-3.227,14.5,14.5,0,0,1,.051-8.059,10.365,10.365,0,0,1,1.693-3.34,8.25,8.25,0,0,1,2.634-2.234,7.11,7.11,0,0,1,3.41-.82,5.955,5.955,0,0,1,3.172.832,6.121,6.121,0,0,1,2.183,2.337h.092V119.325h-3.3V117.5h7Zm-13.409-7.843a22.427,22.427,0,0,0,.329,4.253,7.716,7.716,0,0,0,.928,2.6,3.188,3.188,0,0,0,1.432,1.3,4.624,4.624,0,0,0,1.823.354,4.147,4.147,0,0,0,2.565-.753,5.268,5.268,0,0,0,1.586-1.983,9.694,9.694,0,0,0,.813-2.794,22.158,22.158,0,0,0,.226-3.18,17.345,17.345,0,0,0-.376-3.933,7.625,7.625,0,0,0-1.061-2.587,4.037,4.037,0,0,0-1.616-1.413,5.081,5.081,0,0,0-3.882-.09,3.216,3.216,0,0,0-1.462,1.289,7.55,7.55,0,0,0-.958,2.61A22.62,22.62,0,0,0,695.836,140.963Z" transform="translate(-417.411 -25.248)" fill="#f24962"/>
    <path id="Path_123" data-name="Path 123" d="M391.23,336.444V329h.672v7.444Z" transform="translate(-173.432 -196.951)" fill="#343c50"/>
    <path id="Path_124" data-name="Path 124" d="M413.78,336.444V329h3.677v.674h-3.011v2.681h2.913v.674h-2.907v2.745h3.011v.674Z" transform="translate(-191.739 -196.951)" fill="#343c50"/>
    <path id="Path_125" data-name="Path 125" d="M451.33,336.444V329H452v6.774h2.787v.674Z" transform="translate(-222.223 -196.951)" fill="#343c50"/>
    <path id="Path_126" data-name="Path 126" d="M483.477,336.444V329.67H481.93V329h3.752v.674h-1.53v6.774Z" transform="translate(-247.066 -196.951)" fill="#343c50"/>
    <path id="Path_127" data-name="Path 127" d="M514.868,333.82h.721a1.55,1.55,0,0,0,.388,1.059,1.227,1.227,0,0,0,.96.44,1.317,1.317,0,0,0,.986-.418,1.455,1.455,0,0,0,.4-1.054,1.435,1.435,0,0,0-.122-.583,1.361,1.361,0,0,0-.331-.467,1.83,1.83,0,0,0-.5-.318q-.16-.064-.548-.188-.232-.064-.376-.113t-.248-.094a1.787,1.787,0,0,1-.565-.359,1.729,1.729,0,0,1-.416-.615,2.018,2.018,0,0,1-.137-.766,1.972,1.972,0,0,1,.565-1.441,1.829,1.829,0,0,1,1.355-.564,1.72,1.72,0,0,1,1.317.581,2.034,2.034,0,0,1,.538,1.436h-.7a1.3,1.3,0,0,0-.354-.941,1.161,1.161,0,0,0-.873-.376,1.052,1.052,0,0,0-.818.376,1.345,1.345,0,0,0-.339.92,1.161,1.161,0,0,0,.188.689,1.317,1.317,0,0,0,.5.39,2.766,2.766,0,0,0,.26.105q.158.056.376.126.565.177.675.226a2.094,2.094,0,0,1,.333.175,1.79,1.79,0,0,1,.284.233,1.945,1.945,0,0,1,.457.7,2.3,2.3,0,0,1,.169.862,2.151,2.151,0,0,1-.61,1.543,1.927,1.927,0,0,1-1.44.638,1.968,1.968,0,0,1-1.471-.619A2.207,2.207,0,0,1,514.868,333.82Z" transform="translate(-273.806 -196.414)" fill="#343c50"/>
    <path id="Path_128" data-name="Path 128" d="M578.2,336.444V329h.672v6.774h2.787v.674Z" transform="translate(-325.221 -196.951)" fill="#343c50"/>
    <path id="Path_129" data-name="Path 129" d="M615.686,341.772h-4.5a1.817,1.817,0,0,0,.591,1.344,1.791,1.791,0,0,0,1.279.564,1.91,1.91,0,0,0,1.063-.326,1.866,1.866,0,0,0,.724-.886h.7a2.808,2.808,0,0,1-.941,1.377,2.315,2.315,0,0,1-1.481.551,2.409,2.409,0,0,1-1.855-.837,3.146,3.146,0,0,1,0-4.091,2.384,2.384,0,0,1,1.842-.839,2.29,2.29,0,0,1,1.1.28,2.733,2.733,0,0,1,.9.787,2.8,2.8,0,0,1,.467.975A4.519,4.519,0,0,1,615.686,341.772Zm-4.5-.674h3.831a2.2,2.2,0,0,0-.674-1.246,1.748,1.748,0,0,0-1.229-.506,1.836,1.836,0,0,0-1.257.491,2.069,2.069,0,0,0-.668,1.261Z" transform="translate(-351.455 -204.768)" fill="#343c50"/>
    <path id="Path_130" data-name="Path 130" d="M658.846,338.71v5.511H658.2v-1.046a2.033,2.033,0,0,1-.813.875,2.177,2.177,0,0,1-1.116.3,2.5,2.5,0,0,1-1.129-.28,3.082,3.082,0,0,1-1.054-.89,2.017,2.017,0,0,1-.316-.645,3.577,3.577,0,0,1-.179-1.106,3.128,3.128,0,0,1,.188-1.042,1.711,1.711,0,0,1,.329-.63,3.457,3.457,0,0,1,1.1-.92,2.283,2.283,0,0,1,1.048-.25,2.4,2.4,0,0,1,.589.07,2.069,2.069,0,0,1,.536.222,1.946,1.946,0,0,1,.822.881V338.7Zm-2.595.595a1.844,1.844,0,0,0-1.4.638,2.2,2.2,0,0,0-.587,1.547,2.111,2.111,0,0,0,.6,1.518,1.891,1.891,0,0,0,1.408.627,1.776,1.776,0,0,0,1.351-.634,2.156,2.156,0,0,0,.578-1.505,2.286,2.286,0,0,0-.565-1.552,1.767,1.767,0,0,0-1.383-.636Z" transform="translate(-386.425 -204.728)" fill="#343c50"/>
    <path id="Path_131" data-name="Path 131" d="M703.471,329v7.444h-.64v-1.009a2.522,2.522,0,0,1-.862.856,2.258,2.258,0,0,1-1.146.286,2.206,2.206,0,0,1-1.054-.265,3.819,3.819,0,0,1-1.031-.875,1.735,1.735,0,0,1-.365-.664,3.387,3.387,0,0,1-.188-1.1,2.844,2.844,0,0,1,.788-2.042,2.518,2.518,0,0,1,1.891-.824,2.278,2.278,0,0,1,1.089.271,2.083,2.083,0,0,1,.839.807V329Zm-.659,4.665a2.127,2.127,0,0,0-.581-1.52,1.868,1.868,0,0,0-1.409-.615,1.814,1.814,0,0,0-1.377.625,2.145,2.145,0,0,0-.578,1.505,2.247,2.247,0,0,0,.576,1.551,1.836,1.836,0,0,0,2.794,0A2.241,2.241,0,0,0,702.813,333.665Z" transform="translate(-422.628 -196.951)" fill="#343c50"/>
    <path id="Path_132" data-name="Path 132" d="M748.158,341.747h-4.5a1.818,1.818,0,0,0,.591,1.344,1.792,1.792,0,0,0,1.28.565,1.909,1.909,0,0,0,1.063-.326,1.866,1.866,0,0,0,.724-.892h.7a2.807,2.807,0,0,1-.941,1.377,2.314,2.314,0,0,1-1.481.551,2.408,2.408,0,0,1-1.855-.837,3.146,3.146,0,0,1,0-4.091,2.384,2.384,0,0,1,1.842-.839,2.29,2.29,0,0,1,1.1.28,2.732,2.732,0,0,1,.9.787,2.8,2.8,0,0,1,.467.975A4.52,4.52,0,0,1,748.158,341.747Zm-4.5-.674h3.831a2.2,2.2,0,0,0-.674-1.246,1.748,1.748,0,0,0-1.229-.506,1.836,1.836,0,0,0-1.257.491,2.07,2.07,0,0,0-.67,1.261Z" transform="translate(-458.999 -204.744)" fill="#343c50"/>
    <path id="Path_133" data-name="Path 133" d="M787,344.252v-5.511h.636v.8a1.345,1.345,0,0,1,.6-.709,1.694,1.694,0,0,1,.854-.211v.738a1.317,1.317,0,0,0-.9.376,1.538,1.538,0,0,0-.431.651,2.878,2.878,0,0,0-.081.787v3.084Z" transform="translate(-494.732 -204.759)" fill="#343c50"/>
    <path id="Path_134" data-name="Path 134" d="M202.652,87.07c-8.05.89-10.187,6.616-10.187,6.616L177.6,125.706s2.764.036,5.937.06l14.112-30.961A30.821,30.821,0,0,1,202.652,87.07Z" transform="translate(0 -0.544)" fill="#f24962"/>
    <path id="Path_135" data-name="Path 135" d="M242.124,86.406c-2.943,2.021-5.508,6.669-6.426,8.754l-9.711,21.316L222,125.24c3.558.019,6.9.013,6.9-.077s2.868-7.22,5.8-14.466h6.164v14.466h7.9V86.4h-6.642Zm-1.266,21.062H236c2.574-6.368,4.86-12.011,4.86-12.011Z" transform="translate(-36.045)" fill="#f24962"/>
  </g>
</svg>
